<?xml version="1.0" encoding="utf-8"?>
<!-- Generator: Adobe Illustrator 25.2.3, SVG Export Plug-In . SVG Version: 6.00 Build 0)  -->
<svg version="1.1" id="Layer_1" xmlns="http://www.w3.org/2000/svg" xmlns:xlink="http://www.w3.org/1999/xlink" x="0px" y="0px"
	 viewBox="0 0 100 100" style="enable-background:new 0 0 100 100;" xml:space="preserve">
<style type="text/css">
	.st0{clip-path:url(#SVGID_2_);fill:url(#SVGID_3_);}
	.st1{clip-path:url(#SVGID_5_);fill:url(#SVGID_6_);}
	.st2{clip-path:url(#SVGID_8_);}
	.st3{fill:#FFFFFF;}
	.st4{clip-path:url(#SVGID_10_);fill:url(#SVGID_11_);}
	.st5{clip-path:url(#SVGID_13_);fill:url(#SVGID_14_);}
	.st6{clip-path:url(#SVGID_16_);fill:url(#SVGID_17_);}
	.st7{clip-path:url(#SVGID_19_);fill:url(#SVGID_20_);}
</style>
<g>
	<defs>
		<polygon id="SVGID_1_" points="18.72,58.77 10.49,38.74 81.92,49.79 88.91,67.52 		"/>
	</defs>
	<clipPath id="SVGID_2_">
		<use xlink:href="#SVGID_1_"  style="overflow:visible;"/>
	</clipPath>
	
		<linearGradient id="SVGID_3_" gradientUnits="userSpaceOnUse" x1="0.9338" y1="101.3771" x2="0.9955" y2="101.3771" gradientTransform="matrix(1263.6726 -22.0575 22.0575 1263.6726 -3405.4309 -128033.0156)">
		<stop  offset="0" style="stop-color:#F87011"/>
		<stop  offset="0.317" style="stop-color:#F87211"/>
		<stop  offset="0.4391" style="stop-color:#F87910"/>
		<stop  offset="0.5276" style="stop-color:#F98410"/>
		<stop  offset="0.5994" style="stop-color:#F9950E"/>
		<stop  offset="0.6578" style="stop-color:#FAAA0C"/>
		<stop  offset="0.7143" style="stop-color:#F9B10D"/>
		<stop  offset="0.8687" style="stop-color:#F8BE0F"/>
		<stop  offset="1" style="stop-color:#F7C30F"/>
	</linearGradient>
	<polygon class="st0" points="10.52,68.89 89.41,67.51 88.88,37.37 9.99,38.75 	"/>
</g>
<g>
	<defs>
		<polygon id="SVGID_4_" points="81.12,45.84 90.35,64.18 18.97,59.97 12.95,37 		"/>
	</defs>
	<clipPath id="SVGID_5_">
		<use xlink:href="#SVGID_4_"  style="overflow:visible;"/>
	</clipPath>
	
		<linearGradient id="SVGID_6_" gradientUnits="userSpaceOnUse" x1="2.0357" y1="100.969" x2="2.0973" y2="100.969" gradientTransform="matrix(-1247.6599 21.778 -21.778 -1247.6599 4828.8735 125980.5078)">
		<stop  offset="0" style="stop-color:#3F0138"/>
		<stop  offset="4.545450e-03" style="stop-color:#3F0138"/>
		<stop  offset="0.1872" style="stop-color:#410139"/>
		<stop  offset="0.3287" style="stop-color:#47013A"/>
		<stop  offset="0.4564" style="stop-color:#52013B"/>
		<stop  offset="0.5761" style="stop-color:#62013B"/>
		<stop  offset="0.6902" style="stop-color:#790139"/>
		<stop  offset="0.7999" style="stop-color:#9A0133"/>
		<stop  offset="0.9043" style="stop-color:#C60128"/>
		<stop  offset="1" style="stop-color:#FC0017"/>
	</linearGradient>
	<polygon class="st1" points="90.32,35.65 12.48,37 12.97,65.53 90.82,64.17 	"/>
</g>
<g>
	<defs>
		<rect id="SVGID_7_" x="5.25" y="28.98" width="88.86" height="42.13"/>
	</defs>
	<clipPath id="SVGID_8_">
		<use xlink:href="#SVGID_7_"  style="overflow:visible;"/>
	</clipPath>
	<g class="st2">
		<path class="st3" d="M23.03,46.37h1.49v0.45h-1v0.41h0.95v0.45h-0.95v0.44h1.06v0.45h-1.54V46.37z"/>
		<path class="st3" d="M24.97,46.37h0.48v1.74h0.89v0.45h-1.38V46.37z"/>
		<path class="st3" d="M26.61,46.37h0.48v2.19h-0.48V46.37z"/>
		<path class="st3" d="M27.42,48.11l1.11-1.32h-1.07v-0.43h1.65v0.43l-1.09,1.32h1.13v0.45h-1.73V48.11z"/>
		<path class="st3" d="M30.2,46.37h0.4l0.95,2.19H31l-0.19-0.46h-0.85l-0.18,0.46h-0.53L30.2,46.37z M30.38,47.01l-0.27,0.68h0.53
			L30.38,47.01z"/>
		<path class="st3" d="M31.77,46.37h0.82c0.09,0,0.19,0.01,0.29,0.02c0.1,0.01,0.18,0.04,0.26,0.08c0.08,0.04,0.14,0.1,0.19,0.17
			c0.05,0.07,0.07,0.17,0.07,0.29c0,0.12-0.03,0.23-0.1,0.31c-0.07,0.08-0.16,0.14-0.27,0.17v0.01c0.07,0.01,0.14,0.03,0.2,0.06
			c0.06,0.03,0.11,0.07,0.15,0.11c0.04,0.05,0.07,0.1,0.1,0.16c0.02,0.06,0.03,0.13,0.03,0.2c0,0.12-0.02,0.21-0.07,0.29
			c-0.05,0.08-0.11,0.14-0.19,0.19c-0.08,0.05-0.17,0.08-0.26,0.1c-0.1,0.02-0.2,0.03-0.29,0.03h-0.9V46.37z M32.25,47.24h0.35
			c0.04,0,0.07,0,0.11-0.01c0.04-0.01,0.07-0.02,0.1-0.04s0.05-0.04,0.07-0.07s0.03-0.07,0.03-0.11c0-0.05-0.01-0.08-0.03-0.11
			s-0.04-0.05-0.08-0.07c-0.03-0.02-0.07-0.03-0.1-0.04c-0.04-0.01-0.08-0.01-0.11-0.01h-0.33V47.24z M32.25,48.15h0.43
			c0.04,0,0.07,0,0.11-0.01s0.07-0.02,0.1-0.04c0.03-0.02,0.06-0.05,0.08-0.08c0.02-0.03,0.03-0.07,0.03-0.12
			c0-0.05-0.01-0.09-0.04-0.12c-0.03-0.03-0.06-0.06-0.1-0.07c-0.04-0.02-0.08-0.03-0.13-0.03s-0.09-0.01-0.13-0.01h-0.36V48.15z"/>
		<path class="st3" d="M33.79,46.37h1.49v0.45h-1v0.41h0.95v0.45h-0.95v0.44h1.06v0.45h-1.54V46.37z"/>
		<path class="st3" d="M36.14,46.8h-0.62v-0.43h1.73v0.43h-0.62v1.76h-0.48V46.8z"/>
		<path class="st3" d="M37.49,46.37h0.48v0.82h0.94v-0.82h0.48v2.19h-0.48v-0.95h-0.94v0.95h-0.48V46.37z"/>
		<path class="st3" d="M40.64,47.46c0-0.18,0.03-0.33,0.09-0.48c0.06-0.14,0.14-0.26,0.25-0.36c0.1-0.1,0.23-0.18,0.37-0.23
			c0.14-0.05,0.3-0.08,0.47-0.08c0.17,0,0.33,0.03,0.47,0.08c0.14,0.05,0.27,0.13,0.37,0.23c0.1,0.1,0.19,0.22,0.25,0.36
			c0.06,0.14,0.09,0.3,0.09,0.48s-0.03,0.33-0.09,0.48c-0.06,0.14-0.14,0.26-0.25,0.36c-0.1,0.1-0.23,0.18-0.37,0.23
			c-0.14,0.05-0.3,0.08-0.47,0.08c-0.17,0-0.33-0.03-0.47-0.08c-0.14-0.05-0.27-0.13-0.37-0.23c-0.1-0.1-0.19-0.22-0.25-0.36
			C40.67,47.8,40.64,47.64,40.64,47.46z M41.14,47.46c0,0.1,0.02,0.2,0.05,0.28c0.03,0.09,0.08,0.16,0.14,0.22
			c0.06,0.06,0.13,0.11,0.21,0.15s0.18,0.05,0.28,0.05c0.1,0,0.2-0.02,0.28-0.05c0.08-0.04,0.16-0.08,0.21-0.15
			c0.06-0.06,0.11-0.14,0.14-0.22c0.03-0.09,0.05-0.18,0.05-0.28c0-0.1-0.02-0.19-0.05-0.28c-0.03-0.09-0.08-0.16-0.14-0.22
			c-0.06-0.06-0.13-0.11-0.21-0.15c-0.08-0.04-0.18-0.05-0.28-0.05c-0.1,0-0.2,0.02-0.28,0.05s-0.16,0.08-0.21,0.15
			c-0.06,0.06-0.11,0.14-0.14,0.22C41.15,47.27,41.14,47.36,41.14,47.46z"/>
		<path class="st3" d="M44.46,47.82c0,0.1-0.01,0.2-0.03,0.29s-0.05,0.18-0.1,0.25c-0.05,0.07-0.12,0.13-0.21,0.18
			c-0.09,0.04-0.21,0.07-0.36,0.07c-0.17,0-0.32-0.04-0.44-0.12c-0.12-0.08-0.2-0.21-0.23-0.39l0.44-0.11
			c0.01,0.05,0.03,0.1,0.07,0.14c0.04,0.04,0.09,0.06,0.14,0.06c0.06,0,0.1-0.01,0.13-0.04c0.03-0.03,0.05-0.06,0.07-0.1
			c0.01-0.04,0.02-0.09,0.03-0.13c0-0.05,0-0.09,0-0.13v-1.4h0.48V47.82z"/>
		<path class="st3" d="M44.75,47.46c0-0.18,0.03-0.33,0.09-0.48c0.06-0.14,0.14-0.26,0.25-0.36c0.1-0.1,0.23-0.18,0.37-0.23
			c0.14-0.05,0.3-0.08,0.47-0.08c0.17,0,0.33,0.03,0.47,0.08c0.14,0.05,0.27,0.13,0.37,0.23c0.1,0.1,0.19,0.22,0.25,0.36
			c0.06,0.14,0.09,0.3,0.09,0.48s-0.03,0.33-0.09,0.48c-0.06,0.14-0.14,0.26-0.25,0.36c-0.1,0.1-0.23,0.18-0.37,0.23
			c-0.14,0.05-0.3,0.08-0.47,0.08c-0.17,0-0.33-0.03-0.47-0.08c-0.14-0.05-0.27-0.13-0.37-0.23c-0.1-0.1-0.19-0.22-0.25-0.36
			C44.78,47.8,44.75,47.64,44.75,47.46z M45.25,47.46c0,0.1,0.02,0.2,0.05,0.28c0.03,0.09,0.08,0.16,0.14,0.22
			c0.06,0.06,0.13,0.11,0.21,0.15s0.18,0.05,0.28,0.05c0.1,0,0.2-0.02,0.28-0.05c0.08-0.04,0.16-0.08,0.21-0.15
			c0.06-0.06,0.11-0.14,0.14-0.22c0.03-0.09,0.05-0.18,0.05-0.28c0-0.1-0.02-0.19-0.05-0.28c-0.03-0.09-0.08-0.16-0.14-0.22
			c-0.06-0.06-0.13-0.11-0.21-0.15c-0.08-0.04-0.18-0.05-0.28-0.05c-0.1,0-0.2,0.02-0.28,0.05s-0.16,0.08-0.21,0.15
			c-0.06,0.06-0.11,0.14-0.14,0.22C45.27,47.27,45.25,47.36,45.25,47.46z"/>
		<path class="st3" d="M48.35,46.37h0.48v2.19h-0.48V46.37z"/>
		<path class="st3" d="M51.25,48.4c-0.14,0.07-0.29,0.13-0.45,0.16c-0.15,0.03-0.31,0.05-0.47,0.05c-0.17,0-0.33-0.03-0.47-0.08
			c-0.14-0.05-0.27-0.13-0.37-0.23c-0.1-0.1-0.19-0.22-0.25-0.36c-0.06-0.14-0.09-0.3-0.09-0.48s0.03-0.33,0.09-0.48
			c0.06-0.14,0.14-0.26,0.25-0.36c0.1-0.1,0.23-0.18,0.37-0.23c0.14-0.05,0.3-0.08,0.47-0.08c0.17,0,0.34,0.02,0.48,0.06
			c0.15,0.04,0.28,0.11,0.39,0.22l-0.34,0.37c-0.07-0.07-0.14-0.12-0.22-0.15c-0.08-0.04-0.19-0.05-0.31-0.05
			c-0.1,0-0.2,0.02-0.28,0.05s-0.16,0.08-0.21,0.15c-0.06,0.06-0.11,0.14-0.14,0.22c-0.03,0.09-0.05,0.18-0.05,0.28
			c0,0.1,0.02,0.2,0.05,0.28c0.03,0.09,0.08,0.16,0.14,0.22c0.06,0.06,0.13,0.11,0.21,0.15s0.18,0.05,0.28,0.05
			c0.1,0,0.2-0.01,0.27-0.04c0.08-0.02,0.14-0.05,0.18-0.07V47.7H50.4v-0.45h0.86V48.4z"/>
		<path class="st3" d="M51.68,46.37h0.82c0.09,0,0.19,0.01,0.29,0.02c0.1,0.01,0.18,0.04,0.26,0.08c0.08,0.04,0.14,0.1,0.19,0.17
			c0.05,0.07,0.07,0.17,0.07,0.29c0,0.12-0.03,0.23-0.1,0.31c-0.07,0.08-0.16,0.14-0.27,0.17v0.01c0.07,0.01,0.14,0.03,0.2,0.06
			s0.11,0.07,0.15,0.11c0.04,0.05,0.08,0.1,0.1,0.16c0.02,0.06,0.03,0.13,0.03,0.2c0,0.12-0.02,0.21-0.07,0.29s-0.11,0.14-0.19,0.19
			c-0.08,0.05-0.17,0.08-0.26,0.1s-0.2,0.03-0.29,0.03h-0.9V46.37z M52.16,47.24h0.35c0.04,0,0.07,0,0.11-0.01s0.07-0.02,0.1-0.04
			c0.03-0.02,0.05-0.04,0.07-0.07s0.03-0.07,0.03-0.11c0-0.05-0.01-0.08-0.03-0.11c-0.02-0.03-0.04-0.05-0.08-0.07
			c-0.03-0.02-0.07-0.03-0.11-0.04s-0.08-0.01-0.11-0.01h-0.33V47.24z M52.16,48.15h0.43c0.04,0,0.07,0,0.11-0.01
			s0.07-0.02,0.1-0.04c0.03-0.02,0.06-0.05,0.08-0.08c0.02-0.03,0.03-0.07,0.03-0.12c0-0.05-0.01-0.09-0.04-0.12
			c-0.03-0.03-0.06-0.06-0.1-0.07s-0.08-0.03-0.13-0.03s-0.09-0.01-0.13-0.01h-0.36V48.15z"/>
		<path class="st3" d="M53.67,46.37h0.48v2.19h-0.48V46.37z"/>
		<path class="st3" d="M54.6,46.37h0.66l0.93,1.52h0.01v-1.52h0.48v2.19h-0.63L55.08,47h-0.01v1.56H54.6V46.37z"/>
		<path class="st3" d="M57,47.46c0-0.18,0.03-0.33,0.09-0.48s0.14-0.26,0.25-0.36c0.11-0.1,0.23-0.18,0.37-0.23
			c0.14-0.05,0.3-0.08,0.47-0.08s0.33,0.03,0.47,0.08c0.14,0.05,0.27,0.13,0.37,0.23c0.11,0.1,0.19,0.22,0.25,0.36
			s0.09,0.3,0.09,0.48s-0.03,0.33-0.09,0.48s-0.14,0.26-0.25,0.36c-0.11,0.1-0.23,0.18-0.37,0.23c-0.14,0.05-0.3,0.08-0.47,0.08
			s-0.33-0.03-0.47-0.08c-0.14-0.05-0.27-0.13-0.37-0.23c-0.1-0.1-0.19-0.22-0.25-0.36S57,47.64,57,47.46z M57.5,47.46
			c0,0.1,0.02,0.2,0.05,0.28c0.03,0.09,0.08,0.16,0.14,0.22c0.06,0.06,0.13,0.11,0.21,0.15c0.08,0.04,0.18,0.05,0.28,0.05
			c0.1,0,0.2-0.02,0.28-0.05c0.08-0.04,0.16-0.08,0.21-0.15s0.11-0.14,0.14-0.22s0.05-0.18,0.05-0.28c0-0.1-0.02-0.19-0.05-0.28
			s-0.08-0.16-0.14-0.22s-0.13-0.11-0.21-0.15c-0.08-0.04-0.18-0.05-0.28-0.05c-0.1,0-0.2,0.02-0.28,0.05
			c-0.08,0.04-0.15,0.08-0.21,0.15c-0.06,0.06-0.11,0.14-0.14,0.22C57.51,47.27,57.5,47.36,57.5,47.46z"/>
		<path class="st3" d="M59.69,46.37h0.82c0.09,0,0.19,0.01,0.29,0.02c0.1,0.01,0.18,0.04,0.26,0.08c0.08,0.04,0.14,0.1,0.19,0.17
			c0.05,0.07,0.07,0.17,0.07,0.29c0,0.12-0.03,0.23-0.1,0.31c-0.07,0.08-0.16,0.14-0.27,0.17v0.01c0.07,0.01,0.14,0.03,0.2,0.06
			s0.11,0.07,0.15,0.11c0.04,0.05,0.08,0.1,0.1,0.16c0.02,0.06,0.03,0.13,0.03,0.2c0,0.12-0.02,0.21-0.07,0.29s-0.11,0.14-0.19,0.19
			c-0.08,0.05-0.17,0.08-0.26,0.1s-0.2,0.03-0.29,0.03h-0.9V46.37z M60.17,47.24h0.35c0.04,0,0.07,0,0.11-0.01s0.07-0.02,0.1-0.04
			c0.03-0.02,0.05-0.04,0.07-0.07s0.03-0.07,0.03-0.11c0-0.05-0.01-0.08-0.03-0.11c-0.02-0.03-0.04-0.05-0.08-0.07
			c-0.03-0.02-0.07-0.03-0.11-0.04s-0.08-0.01-0.11-0.01h-0.33V47.24z M60.17,48.15h0.43c0.04,0,0.07,0,0.11-0.01
			s0.07-0.02,0.1-0.04c0.03-0.02,0.06-0.05,0.08-0.08c0.02-0.03,0.03-0.07,0.03-0.12c0-0.05-0.01-0.09-0.04-0.12
			c-0.03-0.03-0.06-0.06-0.1-0.07s-0.08-0.03-0.13-0.03s-0.09-0.01-0.13-0.01h-0.36V48.15z"/>
		<path class="st3" d="M62.41,46.37h0.4l0.95,2.19h-0.54l-0.19-0.46h-0.85L62,48.56h-0.53L62.41,46.37z M62.59,47.01l-0.27,0.68
			h0.54L62.59,47.01z"/>
	</g>
</g>
<g>
	<path class="st3" d="M22.96,50.5h4.14v1.24h-2.8v1.14h2.64v1.24h-2.64v1.24h2.95v1.24h-4.3V50.5z"/>
	<path class="st3" d="M27.73,52.41h1.39l1.06,2.84h0.02l0.98-2.84h1.3l-1.65,4.18h-1.37L27.73,52.41z"/>
	<path class="st3" d="M36.92,55.87c-0.21,0.26-0.47,0.47-0.78,0.61c-0.32,0.14-0.64,0.22-0.98,0.22c-0.32,0-0.62-0.05-0.91-0.16
		s-0.53-0.25-0.74-0.44s-0.37-0.42-0.5-0.69c-0.12-0.27-0.18-0.57-0.18-0.9s0.06-0.63,0.18-0.9c0.12-0.27,0.29-0.5,0.5-0.69
		s0.46-0.34,0.74-0.44c0.28-0.1,0.59-0.16,0.91-0.16c0.3,0,0.57,0.05,0.81,0.16c0.24,0.1,0.45,0.25,0.62,0.44
		c0.17,0.19,0.3,0.42,0.39,0.69c0.09,0.27,0.14,0.57,0.14,0.9v0.4h-3c0.05,0.25,0.16,0.44,0.34,0.59s0.38,0.22,0.64,0.22
		c0.21,0,0.39-0.05,0.54-0.14c0.15-0.09,0.27-0.22,0.38-0.37L36.92,55.87z M35.82,54.03c0.01-0.22-0.07-0.4-0.21-0.56
		c-0.15-0.16-0.34-0.23-0.58-0.23c-0.14,0-0.27,0.02-0.38,0.07c-0.11,0.05-0.2,0.1-0.28,0.18c-0.08,0.07-0.14,0.16-0.18,0.25
		c-0.04,0.09-0.07,0.19-0.07,0.3H35.82z"/>
	<path class="st3" d="M37.9,52.41h1.24v0.57h0.02c0.04-0.08,0.1-0.16,0.17-0.24s0.16-0.15,0.27-0.22c0.1-0.06,0.22-0.11,0.35-0.15
		c0.13-0.04,0.28-0.06,0.43-0.06c0.33,0,0.59,0.05,0.79,0.15c0.2,0.1,0.36,0.24,0.47,0.42s0.19,0.39,0.23,0.63
		c0.04,0.24,0.06,0.5,0.06,0.78v2.31h-1.29v-2.05c0-0.12,0-0.25-0.01-0.37c-0.01-0.13-0.03-0.25-0.08-0.36
		c-0.04-0.11-0.11-0.2-0.2-0.27c-0.09-0.07-0.22-0.1-0.38-0.1c-0.17,0-0.3,0.03-0.4,0.09c-0.1,0.06-0.18,0.14-0.24,0.24
		s-0.09,0.21-0.11,0.34c-0.02,0.13-0.03,0.26-0.03,0.4v2.08H37.9V52.41z"/>
	<path class="st3" d="M45.69,53.44h-1.14v1.39c0,0.11,0.01,0.22,0.02,0.31s0.04,0.18,0.08,0.25c0.04,0.07,0.1,0.12,0.19,0.16
		c0.08,0.04,0.19,0.06,0.33,0.06c0.07,0,0.16-0.01,0.27-0.02s0.2-0.05,0.25-0.1v1.08c-0.14,0.05-0.29,0.09-0.45,0.1
		c-0.15,0.02-0.31,0.03-0.46,0.03c-0.22,0-0.42-0.02-0.6-0.07c-0.18-0.05-0.34-0.12-0.48-0.22c-0.14-0.1-0.25-0.23-0.32-0.39
		c-0.08-0.16-0.12-0.36-0.12-0.58v-1.99h-0.83v-1.03h0.83v-1.24h1.29v1.24h1.14V53.44z"/>
	<path class="st3" d="M48.71,53.64c-0.19-0.24-0.44-0.35-0.75-0.35c-0.11,0-0.22,0.03-0.32,0.08c-0.1,0.05-0.16,0.14-0.16,0.27
		c0,0.1,0.05,0.18,0.16,0.23c0.11,0.05,0.24,0.09,0.4,0.13c0.16,0.04,0.34,0.08,0.53,0.12c0.19,0.04,0.36,0.11,0.52,0.2
		s0.3,0.22,0.4,0.37c0.11,0.16,0.16,0.37,0.16,0.63c0,0.27-0.06,0.49-0.18,0.67c-0.12,0.17-0.27,0.32-0.45,0.42
		c-0.18,0.11-0.39,0.18-0.62,0.22s-0.46,0.06-0.68,0.06c-0.29,0-0.59-0.04-0.89-0.12c-0.3-0.08-0.55-0.23-0.76-0.44l0.78-0.87
		c0.12,0.15,0.25,0.26,0.4,0.34c0.15,0.08,0.32,0.12,0.51,0.12c0.15,0,0.28-0.02,0.4-0.06s0.18-0.12,0.18-0.24
		c0-0.11-0.05-0.19-0.16-0.25c-0.11-0.05-0.24-0.1-0.4-0.14s-0.34-0.08-0.52-0.12s-0.36-0.11-0.53-0.19
		c-0.16-0.09-0.3-0.21-0.4-0.37c-0.11-0.16-0.16-0.37-0.16-0.63c0-0.25,0.05-0.46,0.15-0.64c0.1-0.18,0.23-0.32,0.4-0.44
		c0.16-0.12,0.35-0.2,0.56-0.25s0.43-0.08,0.65-0.08c0.28,0,0.55,0.04,0.83,0.12c0.28,0.08,0.52,0.22,0.71,0.43L48.71,53.64z"/>
	<path class="st3" d="M57.03,52.08c-0.13-0.16-0.29-0.28-0.49-0.37s-0.42-0.13-0.67-0.13c-0.25,0-0.49,0.05-0.7,0.15
		c-0.21,0.1-0.4,0.23-0.56,0.41c-0.16,0.17-0.28,0.38-0.37,0.62s-0.13,0.5-0.13,0.78c0,0.29,0.04,0.55,0.13,0.79
		s0.21,0.45,0.37,0.62s0.34,0.31,0.55,0.41c0.21,0.1,0.43,0.15,0.68,0.15c0.28,0,0.52-0.06,0.73-0.17s0.39-0.28,0.53-0.48l1.12,0.83
		c-0.26,0.36-0.59,0.63-0.98,0.8c-0.4,0.17-0.8,0.26-1.22,0.26c-0.48,0-0.92-0.08-1.32-0.22c-0.4-0.15-0.75-0.36-1.04-0.64
		c-0.29-0.28-0.52-0.62-0.68-1.01c-0.16-0.4-0.25-0.84-0.25-1.33c0-0.49,0.08-0.93,0.25-1.33c0.16-0.4,0.39-0.73,0.68-1.01
		c0.29-0.28,0.64-0.49,1.04-0.64c0.4-0.15,0.84-0.22,1.32-0.22c0.17,0,0.35,0.02,0.54,0.05c0.19,0.03,0.37,0.08,0.55,0.15
		s0.35,0.16,0.52,0.28c0.17,0.11,0.32,0.26,0.45,0.42L57.03,52.08z"/>
	<path class="st3" d="M62.73,55.87c-0.21,0.26-0.47,0.47-0.78,0.61c-0.32,0.14-0.64,0.22-0.98,0.22c-0.32,0-0.62-0.05-0.91-0.16
		s-0.53-0.25-0.74-0.44c-0.21-0.19-0.37-0.42-0.5-0.69c-0.12-0.27-0.18-0.57-0.18-0.9s0.06-0.63,0.18-0.9
		c0.12-0.27,0.29-0.5,0.5-0.69c0.21-0.19,0.46-0.34,0.74-0.44c0.28-0.1,0.59-0.16,0.91-0.16c0.3,0,0.57,0.05,0.81,0.16
		c0.24,0.1,0.45,0.25,0.62,0.44c0.17,0.19,0.3,0.42,0.39,0.69c0.09,0.27,0.14,0.57,0.14,0.9v0.4h-3c0.05,0.25,0.16,0.44,0.34,0.59
		s0.38,0.22,0.64,0.22c0.21,0,0.39-0.05,0.54-0.14s0.27-0.22,0.38-0.37L62.73,55.87z M61.64,54.03c0-0.22-0.07-0.4-0.22-0.56
		s-0.34-0.23-0.58-0.23c-0.14,0-0.27,0.02-0.38,0.07c-0.11,0.05-0.2,0.1-0.28,0.18c-0.08,0.07-0.14,0.16-0.18,0.25
		s-0.07,0.19-0.07,0.3H61.64z"/>
	<path class="st3" d="M63.72,52.41h1.24v0.57h0.02c0.04-0.08,0.1-0.16,0.17-0.24c0.07-0.08,0.16-0.15,0.27-0.22
		c0.1-0.06,0.22-0.11,0.35-0.15s0.28-0.06,0.43-0.06c0.33,0,0.59,0.05,0.79,0.15c0.2,0.1,0.36,0.24,0.47,0.42
		c0.11,0.18,0.19,0.39,0.23,0.63c0.04,0.24,0.06,0.5,0.06,0.78v2.31h-1.29v-2.05c0-0.12,0-0.25-0.01-0.37
		c-0.01-0.13-0.03-0.25-0.08-0.36c-0.04-0.11-0.11-0.2-0.2-0.27c-0.09-0.07-0.22-0.1-0.38-0.1c-0.17,0-0.3,0.03-0.4,0.09
		c-0.1,0.06-0.18,0.14-0.24,0.24s-0.09,0.21-0.11,0.34c-0.02,0.13-0.03,0.26-0.03,0.4v2.08h-1.29V52.41z"/>
	<path class="st3" d="M71.51,53.44h-1.14v1.39c0,0.11,0.01,0.22,0.02,0.31s0.04,0.18,0.08,0.25c0.04,0.07,0.1,0.12,0.19,0.16
		s0.19,0.06,0.33,0.06c0.07,0,0.16-0.01,0.27-0.02s0.2-0.05,0.25-0.1v1.08c-0.14,0.05-0.29,0.09-0.45,0.1
		c-0.16,0.02-0.31,0.03-0.46,0.03c-0.22,0-0.42-0.02-0.6-0.07s-0.34-0.12-0.48-0.22c-0.14-0.1-0.25-0.23-0.32-0.39
		c-0.08-0.16-0.12-0.36-0.12-0.58v-1.99h-0.83v-1.03h0.83v-1.24h1.29v1.24h1.14V53.44z"/>
	<path class="st3" d="M72.16,52.41h1.29v0.67h0.02c0.14-0.26,0.3-0.45,0.49-0.58c0.19-0.13,0.43-0.19,0.71-0.19
		c0.08,0,0.15,0,0.22,0.01c0.08,0.01,0.14,0.02,0.21,0.03v1.18c-0.09-0.03-0.18-0.05-0.27-0.06c-0.09-0.01-0.18-0.02-0.28-0.02
		c-0.25,0-0.44,0.03-0.59,0.1c-0.14,0.07-0.25,0.17-0.33,0.29c-0.08,0.12-0.13,0.27-0.15,0.44c-0.02,0.17-0.04,0.36-0.04,0.57v1.75
		h-1.29V52.41z"/>
	<path class="st3" d="M79.48,55.87c-0.21,0.26-0.47,0.47-0.78,0.61c-0.32,0.14-0.64,0.22-0.98,0.22c-0.32,0-0.62-0.05-0.91-0.16
		s-0.53-0.25-0.74-0.44c-0.21-0.19-0.37-0.42-0.5-0.69c-0.12-0.27-0.18-0.57-0.18-0.9s0.06-0.63,0.18-0.9
		c0.12-0.27,0.29-0.5,0.5-0.69c0.21-0.19,0.46-0.34,0.74-0.44c0.28-0.1,0.59-0.16,0.91-0.16c0.3,0,0.57,0.05,0.81,0.16
		c0.24,0.1,0.45,0.25,0.62,0.44c0.17,0.19,0.3,0.42,0.39,0.69c0.09,0.27,0.14,0.57,0.14,0.9v0.4h-3c0.05,0.25,0.16,0.44,0.34,0.59
		s0.38,0.22,0.64,0.22c0.21,0,0.39-0.05,0.54-0.14s0.27-0.22,0.38-0.37L79.48,55.87z M78.38,54.03c0-0.22-0.07-0.4-0.22-0.56
		s-0.34-0.23-0.58-0.23c-0.14,0-0.27,0.02-0.38,0.07c-0.11,0.05-0.2,0.1-0.28,0.18c-0.08,0.07-0.14,0.16-0.18,0.25
		s-0.07,0.19-0.07,0.3H78.38z"/>
</g>
<g>
	<defs>
		<rect id="SVGID_9_" x="92.49" y="69.49" width="1.62" height="1.62"/>
	</defs>
	<clipPath id="SVGID_10_">
		<use xlink:href="#SVGID_9_"  style="overflow:visible;"/>
	</clipPath>
	
		<linearGradient id="SVGID_11_" gradientUnits="userSpaceOnUse" x1="-8.087" y1="110.9351" x2="-8.0253" y2="110.9351" gradientTransform="matrix(68.8467 -68.8467 -68.8467 -68.8467 8285.3652 7153.2715)">
		<stop  offset="0" style="stop-color:#3F0138"/>
		<stop  offset="4.545450e-03" style="stop-color:#3F0138"/>
		<stop  offset="0.011" style="stop-color:#410139"/>
		<stop  offset="0.1562" style="stop-color:#65013B"/>
		<stop  offset="0.3028" style="stop-color:#8B0136"/>
		<stop  offset="0.4478" style="stop-color:#AF012E"/>
		<stop  offset="0.5911" style="stop-color:#CF0026"/>
		<stop  offset="0.732" style="stop-color:#E7001E"/>
		<stop  offset="0.8696" style="stop-color:#F70019"/>
		<stop  offset="1" style="stop-color:#FC0017"/>
	</linearGradient>
	<polygon class="st4" points="91.69,70.3 93.3,68.69 94.92,70.3 93.3,71.92 	"/>
</g>
<g>
	<defs>
		<rect id="SVGID_12_" x="6.95" y="33.81" width="1.62" height="1.62"/>
	</defs>
	<clipPath id="SVGID_13_">
		<use xlink:href="#SVGID_12_"  style="overflow:visible;"/>
	</clipPath>
	
		<linearGradient id="SVGID_14_" gradientUnits="userSpaceOnUse" x1="-2.5732" y1="97.5311" x2="-2.5115" y2="97.5311" gradientTransform="matrix(68.8467 -68.8467 -68.8467 -68.8467 6897.3882 6574.3774)">
		<stop  offset="0" style="stop-color:#F87011"/>
		<stop  offset="0.317" style="stop-color:#F87211"/>
		<stop  offset="0.4391" style="stop-color:#F87910"/>
		<stop  offset="0.5276" style="stop-color:#F98410"/>
		<stop  offset="0.5994" style="stop-color:#F9950E"/>
		<stop  offset="0.6578" style="stop-color:#FAAA0C"/>
		<stop  offset="0.7143" style="stop-color:#F9B10D"/>
		<stop  offset="0.8687" style="stop-color:#F8BE0F"/>
		<stop  offset="1" style="stop-color:#F7C30F"/>
	</linearGradient>
	<polygon class="st5" points="6.14,34.62 7.75,33.01 9.37,34.62 7.75,36.24 	"/>
</g>
<g>
	<defs>
		<rect id="SVGID_15_" x="9.87" y="31.59" width="1.62" height="1.62"/>
	</defs>
	<clipPath id="SVGID_16_">
		<use xlink:href="#SVGID_15_"  style="overflow:visible;"/>
	</clipPath>
	
		<linearGradient id="SVGID_17_" gradientUnits="userSpaceOnUse" x1="-3.1425" y1="97.6083" x2="-3.0809" y2="97.6083" gradientTransform="matrix(68.8467 -68.8467 -68.8467 -68.8467 6944.8276 6538.2734)">
		<stop  offset="0" style="stop-color:#3F0138"/>
		<stop  offset="4.545450e-03" style="stop-color:#3F0138"/>
		<stop  offset="0.011" style="stop-color:#410139"/>
		<stop  offset="0.1562" style="stop-color:#65013B"/>
		<stop  offset="0.3028" style="stop-color:#8B0136"/>
		<stop  offset="0.4478" style="stop-color:#AF012E"/>
		<stop  offset="0.5911" style="stop-color:#CF0026"/>
		<stop  offset="0.732" style="stop-color:#E7001E"/>
		<stop  offset="0.8696" style="stop-color:#F70019"/>
		<stop  offset="1" style="stop-color:#FC0017"/>
	</linearGradient>
	<polygon class="st6" points="9.06,32.4 10.68,30.78 12.29,32.4 10.68,34.01 	"/>
</g>
<g>
	<defs>
		<rect id="SVGID_18_" x="5.25" y="28.98" width="1.62" height="1.62"/>
	</defs>
	<clipPath id="SVGID_19_">
		<use xlink:href="#SVGID_18_"  style="overflow:visible;"/>
	</clipPath>
	
		<linearGradient id="SVGID_20_" gradientUnits="userSpaceOnUse" x1="-2.9204" y1="96.8094" x2="-2.8587" y2="96.8094" gradientTransform="matrix(68.8467 -68.8467 -68.8467 -68.8467 6869.9146 6495.9565)">
		<stop  offset="0" style="stop-color:#3F0138"/>
		<stop  offset="4.545450e-03" style="stop-color:#3F0138"/>
		<stop  offset="0.011" style="stop-color:#410139"/>
		<stop  offset="0.1562" style="stop-color:#65013B"/>
		<stop  offset="0.3028" style="stop-color:#8B0136"/>
		<stop  offset="0.4478" style="stop-color:#AF012E"/>
		<stop  offset="0.5911" style="stop-color:#CF0026"/>
		<stop  offset="0.732" style="stop-color:#E7001E"/>
		<stop  offset="0.8696" style="stop-color:#F70019"/>
		<stop  offset="1" style="stop-color:#FC0017"/>
	</linearGradient>
	<polygon class="st7" points="4.45,29.79 6.06,28.17 7.68,29.79 6.06,31.4 	"/>
</g>
</svg>
