<?xml version="1.0" encoding="utf-8"?>
<!-- Generator: Adobe Illustrator 25.2.3, SVG Export Plug-In . SVG Version: 6.00 Build 0)  -->
<svg version="1.1" id="Layer_1" xmlns="http://www.w3.org/2000/svg" xmlns:xlink="http://www.w3.org/1999/xlink" x="0px" y="0px"
	 viewBox="0 0 88.86 42.13" style="enable-background:new 0 0 88.86 42.13;" xml:space="preserve">
<style type="text/css">
	.st0{fill:url(#SVGID_1_);}
	.st1{fill:url(#SVGID_2_);}
	.st2{fill:url(#SVGID_3_);}
	.st3{fill:#FFFFFF;}
	.st4{fill:url(#SVGID_4_);}
	.st5{fill:url(#SVGID_5_);}
	.st6{fill:url(#SVGID_6_);}
</style>
<linearGradient id="SVGID_1_" gradientUnits="userSpaceOnUse" x1="87.2402" y1="41.3207" x2="88.8555" y2="41.3207">
	<stop  offset="0" style="stop-color:#3F0138"/>
	<stop  offset="4.545450e-03" style="stop-color:#3F0138"/>
	<stop  offset="0.0629" style="stop-color:#48013A"/>
	<stop  offset="0.4054" style="stop-color:#860137"/>
	<stop  offset="0.6864" style="stop-color:#C0012A"/>
	<stop  offset="0.8918" style="stop-color:#EB001D"/>
	<stop  offset="1" style="stop-color:#FC0017"/>
</linearGradient>
<rect x="87.24" y="40.51" class="st0" width="1.62" height="1.62"/>
<linearGradient id="SVGID_2_" gradientUnits="userSpaceOnUse" x1="0.4156" y1="24.1912" x2="95.5338" y2="24.1912">
	<stop  offset="0" style="stop-color:#F87011"/>
	<stop  offset="0.317" style="stop-color:#F87211"/>
	<stop  offset="0.4391" style="stop-color:#F87910"/>
	<stop  offset="0.5276" style="stop-color:#F98410"/>
	<stop  offset="0.5994" style="stop-color:#F9950E"/>
	<stop  offset="0.6578" style="stop-color:#FAAA0C"/>
	<stop  offset="0.7143" style="stop-color:#F9B10D"/>
	<stop  offset="0.8687" style="stop-color:#F8BE0F"/>
	<stop  offset="1" style="stop-color:#F7C30F"/>
</linearGradient>
<polygon class="st1" points="13.47,29.79 5.24,9.84 73.41,18.69 83.65,38.54 "/>
<linearGradient id="SVGID_3_" gradientUnits="userSpaceOnUse" x1="80.301" y1="21.6099" x2="-12.3738" y2="21.6099">
	<stop  offset="0" style="stop-color:#3F0138"/>
	<stop  offset="4.545450e-03" style="stop-color:#3F0138"/>
	<stop  offset="0.0629" style="stop-color:#48013A"/>
	<stop  offset="0.4054" style="stop-color:#860137"/>
	<stop  offset="0.6864" style="stop-color:#C0012A"/>
	<stop  offset="0.8918" style="stop-color:#EB001D"/>
	<stop  offset="1" style="stop-color:#FC0017"/>
</linearGradient>
<polygon class="st2" points="13.72,31 7.7,8.02 75.87,16.87 85.57,35.2 "/>
<g>
	<path class="st3" d="M17.71,21.52h4.14v1.24h-2.8v1.14h2.64v1.24h-2.64v1.24h2.95v1.24h-4.3V21.52z"/>
	<path class="st3" d="M22.48,23.43h1.39l1.06,2.84h0.02l0.98-2.84h1.3l-1.65,4.18h-1.37L22.48,23.43z"/>
	<path class="st3" d="M31.67,26.89c-0.21,0.26-0.47,0.47-0.78,0.61c-0.32,0.14-0.64,0.22-0.98,0.22c-0.32,0-0.62-0.05-0.91-0.16
		s-0.53-0.25-0.74-0.44s-0.37-0.42-0.5-0.69c-0.12-0.27-0.18-0.57-0.18-0.9s0.06-0.63,0.18-0.9c0.12-0.27,0.29-0.5,0.5-0.69
		s0.46-0.34,0.74-0.44c0.28-0.1,0.59-0.16,0.91-0.16c0.3,0,0.57,0.05,0.81,0.16c0.24,0.1,0.45,0.25,0.62,0.44
		c0.17,0.19,0.3,0.42,0.39,0.69c0.09,0.27,0.14,0.57,0.14,0.9v0.4h-3c0.05,0.25,0.16,0.44,0.34,0.59s0.38,0.22,0.64,0.22
		c0.21,0,0.39-0.05,0.54-0.14c0.15-0.09,0.27-0.22,0.38-0.37L31.67,26.89z M30.57,25.05c0.01-0.22-0.07-0.4-0.21-0.56
		c-0.15-0.16-0.34-0.23-0.58-0.23c-0.14,0-0.27,0.02-0.38,0.07c-0.11,0.05-0.2,0.1-0.28,0.18c-0.08,0.07-0.14,0.16-0.18,0.25
		c-0.04,0.09-0.07,0.19-0.07,0.3H30.57z"/>
	<path class="st3" d="M32.65,23.43h1.24V24h0.02c0.04-0.08,0.1-0.16,0.17-0.24s0.16-0.15,0.27-0.22c0.1-0.06,0.22-0.11,0.35-0.15
		c0.13-0.04,0.28-0.06,0.43-0.06c0.33,0,0.59,0.05,0.79,0.15c0.2,0.1,0.36,0.24,0.47,0.42s0.19,0.39,0.23,0.63
		c0.04,0.24,0.06,0.5,0.06,0.78v2.31h-1.29v-2.05c0-0.12,0-0.25-0.01-0.37c-0.01-0.13-0.03-0.25-0.08-0.36
		c-0.04-0.11-0.11-0.2-0.2-0.27c-0.09-0.07-0.22-0.1-0.38-0.1c-0.17,0-0.3,0.03-0.4,0.09c-0.1,0.06-0.18,0.14-0.24,0.24
		s-0.09,0.21-0.11,0.34c-0.02,0.13-0.03,0.26-0.03,0.4v2.08h-1.29V23.43z"/>
	<path class="st3" d="M40.44,24.46H39.3v1.39c0,0.11,0.01,0.22,0.02,0.31s0.04,0.18,0.08,0.25c0.04,0.07,0.1,0.12,0.19,0.16
		c0.08,0.04,0.19,0.06,0.33,0.06c0.07,0,0.16-0.01,0.27-0.02s0.2-0.05,0.25-0.1v1.08c-0.14,0.05-0.29,0.09-0.45,0.1
		c-0.15,0.02-0.31,0.03-0.46,0.03c-0.22,0-0.42-0.02-0.6-0.07c-0.18-0.05-0.34-0.12-0.48-0.22c-0.14-0.1-0.25-0.23-0.32-0.39
		c-0.08-0.16-0.12-0.36-0.12-0.58v-1.99h-0.83v-1.03h0.83v-1.24h1.29v1.24h1.14V24.46z"/>
	<path class="st3" d="M43.46,24.66c-0.19-0.24-0.44-0.35-0.75-0.35c-0.11,0-0.22,0.03-0.32,0.08c-0.1,0.05-0.16,0.14-0.16,0.27
		c0,0.1,0.05,0.18,0.16,0.23c0.11,0.05,0.24,0.09,0.4,0.13c0.16,0.04,0.34,0.08,0.52,0.12s0.36,0.11,0.53,0.2s0.3,0.22,0.4,0.37
		c0.11,0.16,0.16,0.37,0.16,0.63c0,0.27-0.06,0.49-0.18,0.67c-0.12,0.17-0.27,0.32-0.45,0.42c-0.18,0.11-0.39,0.18-0.62,0.22
		s-0.46,0.06-0.68,0.06c-0.29,0-0.59-0.04-0.89-0.12c-0.3-0.08-0.55-0.23-0.76-0.44l0.78-0.87c0.12,0.15,0.25,0.26,0.4,0.34
		c0.15,0.08,0.32,0.12,0.51,0.12c0.15,0,0.28-0.02,0.4-0.06s0.18-0.12,0.18-0.24c0-0.11-0.05-0.19-0.16-0.25
		c-0.11-0.05-0.24-0.1-0.4-0.14s-0.34-0.08-0.52-0.12s-0.36-0.11-0.53-0.19c-0.16-0.09-0.3-0.21-0.4-0.37
		C41,25.21,40.95,25,40.95,24.74c0-0.25,0.05-0.46,0.15-0.64c0.1-0.18,0.23-0.32,0.4-0.44c0.16-0.12,0.35-0.2,0.56-0.25
		s0.43-0.08,0.65-0.08c0.28,0,0.55,0.04,0.83,0.12c0.28,0.08,0.52,0.22,0.71,0.43L43.46,24.66z"/>
	<path class="st3" d="M51.78,23.1c-0.13-0.16-0.29-0.28-0.49-0.37s-0.42-0.13-0.67-0.13c-0.25,0-0.49,0.05-0.7,0.15
		c-0.21,0.1-0.4,0.23-0.56,0.41c-0.16,0.17-0.28,0.38-0.37,0.62s-0.13,0.5-0.13,0.78c0,0.29,0.04,0.55,0.13,0.79
		s0.21,0.45,0.37,0.62s0.34,0.31,0.55,0.41c0.21,0.1,0.43,0.15,0.68,0.15c0.28,0,0.52-0.06,0.73-0.17s0.39-0.28,0.53-0.48l1.12,0.83
		c-0.26,0.36-0.59,0.63-0.98,0.8c-0.4,0.17-0.8,0.26-1.22,0.26c-0.48,0-0.92-0.08-1.32-0.22c-0.4-0.15-0.75-0.36-1.04-0.64
		c-0.29-0.28-0.52-0.62-0.68-1.01c-0.16-0.4-0.25-0.84-0.25-1.33c0-0.49,0.08-0.93,0.25-1.33c0.16-0.4,0.39-0.73,0.68-1.01
		c0.29-0.28,0.64-0.49,1.04-0.64c0.4-0.15,0.84-0.22,1.32-0.22c0.17,0,0.35,0.02,0.54,0.05c0.19,0.03,0.37,0.08,0.55,0.15
		s0.35,0.16,0.52,0.28c0.17,0.11,0.32,0.26,0.45,0.42L51.78,23.1z"/>
	<path class="st3" d="M57.48,26.89c-0.21,0.26-0.47,0.47-0.78,0.61c-0.32,0.14-0.64,0.22-0.98,0.22c-0.32,0-0.62-0.05-0.91-0.16
		s-0.53-0.25-0.74-0.44c-0.21-0.19-0.37-0.42-0.5-0.69c-0.12-0.27-0.18-0.57-0.18-0.9s0.06-0.63,0.18-0.9
		c0.12-0.27,0.29-0.5,0.5-0.69c0.21-0.19,0.46-0.34,0.74-0.44c0.28-0.1,0.59-0.16,0.91-0.16c0.3,0,0.57,0.05,0.81,0.16
		c0.24,0.1,0.45,0.25,0.62,0.44c0.17,0.19,0.3,0.42,0.39,0.69c0.09,0.27,0.14,0.57,0.14,0.9v0.4h-3c0.05,0.25,0.16,0.44,0.34,0.59
		s0.38,0.22,0.64,0.22c0.21,0,0.39-0.05,0.54-0.14s0.27-0.22,0.38-0.37L57.48,26.89z M56.39,25.05c0-0.22-0.07-0.4-0.22-0.56
		s-0.34-0.23-0.58-0.23c-0.14,0-0.27,0.02-0.38,0.07c-0.11,0.05-0.2,0.1-0.28,0.18c-0.08,0.07-0.14,0.16-0.18,0.25
		s-0.07,0.19-0.07,0.3H56.39z"/>
	<path class="st3" d="M58.46,23.43h1.24V24h0.02c0.04-0.08,0.1-0.16,0.17-0.24c0.07-0.08,0.16-0.15,0.27-0.22
		c0.1-0.06,0.22-0.11,0.35-0.15s0.28-0.06,0.43-0.06c0.33,0,0.59,0.05,0.79,0.15c0.2,0.1,0.36,0.24,0.47,0.42
		c0.11,0.18,0.19,0.39,0.23,0.63c0.04,0.24,0.06,0.5,0.06,0.78v2.31H61.2v-2.05c0-0.12,0-0.25-0.01-0.37
		c-0.01-0.13-0.03-0.25-0.08-0.36c-0.04-0.11-0.11-0.2-0.2-0.27c-0.09-0.07-0.22-0.1-0.38-0.1c-0.17,0-0.3,0.03-0.4,0.09
		c-0.1,0.06-0.18,0.14-0.24,0.24s-0.09,0.21-0.11,0.34c-0.02,0.13-0.03,0.26-0.03,0.4v2.08h-1.29V23.43z"/>
	<path class="st3" d="M66.26,24.46h-1.14v1.39c0,0.11,0.01,0.22,0.02,0.31s0.04,0.18,0.08,0.25c0.04,0.07,0.1,0.12,0.19,0.16
		s0.19,0.06,0.33,0.06c0.07,0,0.16-0.01,0.27-0.02s0.2-0.05,0.25-0.1v1.08c-0.14,0.05-0.29,0.09-0.45,0.1
		c-0.16,0.02-0.31,0.03-0.46,0.03c-0.22,0-0.42-0.02-0.6-0.07s-0.34-0.12-0.48-0.22c-0.14-0.1-0.25-0.23-0.32-0.39
		c-0.08-0.16-0.12-0.36-0.12-0.58v-1.99H63v-1.03h0.83v-1.24h1.29v1.24h1.14V24.46z"/>
	<path class="st3" d="M66.91,23.43h1.29v0.67h0.02c0.14-0.26,0.3-0.45,0.49-0.58c0.19-0.13,0.43-0.19,0.71-0.19
		c0.08,0,0.15,0,0.22,0.01c0.08,0.01,0.14,0.02,0.21,0.03v1.18c-0.09-0.03-0.18-0.05-0.27-0.06c-0.09-0.01-0.18-0.02-0.28-0.02
		c-0.25,0-0.44,0.03-0.59,0.1c-0.14,0.07-0.25,0.17-0.33,0.29c-0.08,0.12-0.13,0.27-0.15,0.44c-0.02,0.17-0.04,0.36-0.04,0.57v1.75
		h-1.29V23.43z"/>
	<path class="st3" d="M74.23,26.89c-0.21,0.26-0.47,0.47-0.78,0.61c-0.32,0.14-0.64,0.22-0.98,0.22c-0.32,0-0.62-0.05-0.91-0.16
		s-0.53-0.25-0.74-0.44c-0.21-0.19-0.37-0.42-0.5-0.69c-0.12-0.27-0.18-0.57-0.18-0.9s0.06-0.63,0.18-0.9
		c0.12-0.27,0.29-0.5,0.5-0.69c0.21-0.19,0.46-0.34,0.74-0.44c0.28-0.1,0.59-0.16,0.91-0.16c0.3,0,0.57,0.05,0.81,0.16
		c0.24,0.1,0.45,0.25,0.62,0.44c0.17,0.19,0.3,0.42,0.39,0.69c0.09,0.27,0.14,0.57,0.14,0.9v0.4h-3c0.05,0.25,0.16,0.44,0.34,0.59
		s0.38,0.22,0.64,0.22c0.21,0,0.39-0.05,0.54-0.14s0.27-0.22,0.38-0.37L74.23,26.89z M73.13,25.05c0-0.22-0.07-0.4-0.22-0.56
		s-0.34-0.23-0.58-0.23c-0.14,0-0.27,0.02-0.38,0.07c-0.11,0.05-0.2,0.1-0.28,0.18c-0.08,0.07-0.14,0.16-0.18,0.25
		s-0.07,0.19-0.07,0.3H73.13z"/>
</g>
<g>
	<path class="st3" d="M17.77,17.39h1.49v0.45h-1v0.41h0.95v0.45h-0.95v0.44h1.06v0.45h-1.54V17.39z"/>
	<path class="st3" d="M19.72,17.39h0.48v1.74h0.89v0.45h-1.38V17.39z"/>
	<path class="st3" d="M21.36,17.39h0.48v2.19h-0.48V17.39z"/>
	<path class="st3" d="M22.16,19.13l1.11-1.32H22.2v-0.43h1.65v0.43l-1.09,1.32h1.13v0.45h-1.73V19.13z"/>
	<path class="st3" d="M24.94,17.39h0.4l0.95,2.19h-0.54l-0.19-0.46h-0.85l-0.18,0.46H24L24.94,17.39z M25.13,18.03l-0.27,0.68h0.53
		L25.13,18.03z"/>
	<path class="st3" d="M26.51,17.39h0.82c0.09,0,0.19,0.01,0.29,0.02c0.1,0.01,0.18,0.04,0.26,0.08c0.08,0.04,0.14,0.1,0.19,0.17
		c0.05,0.07,0.07,0.17,0.07,0.29c0,0.12-0.03,0.23-0.1,0.31c-0.07,0.08-0.16,0.14-0.27,0.17v0.01c0.07,0.01,0.14,0.03,0.2,0.06
		c0.06,0.03,0.11,0.07,0.15,0.11c0.04,0.05,0.07,0.1,0.1,0.16c0.02,0.06,0.03,0.13,0.03,0.2c0,0.12-0.02,0.21-0.07,0.29
		c-0.05,0.08-0.11,0.14-0.19,0.19c-0.08,0.05-0.17,0.08-0.26,0.1c-0.1,0.02-0.2,0.03-0.29,0.03h-0.9V17.39z M27,18.26h0.35
		c0.04,0,0.07,0,0.11-0.01c0.04-0.01,0.07-0.02,0.1-0.04s0.05-0.04,0.07-0.07s0.03-0.07,0.03-0.11c0-0.05-0.01-0.08-0.03-0.11
		s-0.04-0.05-0.08-0.07c-0.03-0.02-0.07-0.03-0.1-0.04c-0.04-0.01-0.08-0.01-0.11-0.01H27V18.26z M27,19.17h0.43
		c0.04,0,0.07,0,0.11-0.01s0.07-0.02,0.1-0.04c0.03-0.02,0.06-0.05,0.08-0.08c0.02-0.03,0.03-0.07,0.03-0.12
		c0-0.05-0.01-0.09-0.04-0.12c-0.03-0.03-0.06-0.06-0.1-0.07c-0.04-0.02-0.08-0.03-0.13-0.03s-0.09-0.01-0.13-0.01H27V19.17z"/>
	<path class="st3" d="M28.54,17.39h1.49v0.45h-1v0.41h0.95v0.45h-0.95v0.44h1.06v0.45h-1.54V17.39z"/>
	<path class="st3" d="M30.89,17.82h-0.62v-0.43h1.73v0.43h-0.62v1.76h-0.48V17.82z"/>
	<path class="st3" d="M32.24,17.39h0.48v0.82h0.94v-0.82h0.48v2.19h-0.48v-0.95h-0.94v0.95h-0.48V17.39z"/>
	<path class="st3" d="M35.38,18.48c0-0.18,0.03-0.33,0.09-0.48c0.06-0.14,0.14-0.26,0.25-0.36c0.1-0.1,0.23-0.18,0.37-0.23
		c0.14-0.05,0.3-0.08,0.47-0.08c0.17,0,0.33,0.03,0.47,0.08c0.14,0.05,0.27,0.13,0.37,0.23c0.1,0.1,0.19,0.22,0.25,0.36
		c0.06,0.14,0.09,0.3,0.09,0.48s-0.03,0.33-0.09,0.48c-0.06,0.14-0.14,0.26-0.25,0.36c-0.1,0.1-0.23,0.18-0.37,0.23
		c-0.14,0.05-0.3,0.08-0.47,0.08c-0.17,0-0.33-0.03-0.47-0.08c-0.14-0.05-0.27-0.13-0.37-0.23c-0.1-0.1-0.19-0.22-0.25-0.36
		C35.41,18.82,35.38,18.66,35.38,18.48z M35.88,18.48c0,0.1,0.02,0.2,0.05,0.28c0.03,0.09,0.08,0.16,0.14,0.22
		c0.06,0.06,0.13,0.11,0.21,0.15s0.18,0.05,0.28,0.05c0.1,0,0.2-0.02,0.28-0.05c0.08-0.04,0.16-0.08,0.21-0.15
		c0.06-0.06,0.11-0.14,0.14-0.22c0.03-0.09,0.05-0.18,0.05-0.28c0-0.1-0.02-0.19-0.05-0.28c-0.03-0.09-0.08-0.16-0.14-0.22
		c-0.06-0.06-0.13-0.11-0.21-0.15c-0.08-0.04-0.18-0.05-0.28-0.05c-0.1,0-0.2,0.02-0.28,0.05s-0.16,0.08-0.21,0.15
		c-0.06,0.06-0.11,0.14-0.14,0.22C35.9,18.29,35.88,18.38,35.88,18.48z"/>
	<path class="st3" d="M39.2,18.84c0,0.1-0.01,0.2-0.03,0.29s-0.05,0.18-0.1,0.25c-0.05,0.07-0.12,0.13-0.21,0.18
		c-0.09,0.04-0.21,0.07-0.36,0.07c-0.17,0-0.32-0.04-0.44-0.12c-0.12-0.08-0.2-0.21-0.23-0.39l0.44-0.11
		c0.01,0.05,0.03,0.1,0.07,0.14c0.04,0.04,0.09,0.06,0.14,0.06c0.06,0,0.1-0.01,0.13-0.04c0.03-0.03,0.05-0.06,0.07-0.1
		c0.01-0.04,0.02-0.09,0.03-0.13c0-0.05,0-0.09,0-0.13v-1.4h0.48V18.84z"/>
	<path class="st3" d="M39.5,18.48c0-0.18,0.03-0.33,0.09-0.48c0.06-0.14,0.14-0.26,0.25-0.36c0.1-0.1,0.23-0.18,0.37-0.23
		c0.14-0.05,0.3-0.08,0.47-0.08c0.17,0,0.33,0.03,0.47,0.08c0.14,0.05,0.27,0.13,0.37,0.23c0.1,0.1,0.19,0.22,0.25,0.36
		c0.06,0.14,0.09,0.3,0.09,0.48s-0.03,0.33-0.09,0.48c-0.06,0.14-0.14,0.26-0.25,0.36c-0.1,0.1-0.23,0.18-0.37,0.23
		c-0.14,0.05-0.3,0.08-0.47,0.08c-0.17,0-0.33-0.03-0.47-0.08c-0.14-0.05-0.27-0.13-0.37-0.23c-0.1-0.1-0.19-0.22-0.25-0.36
		C39.53,18.82,39.5,18.66,39.5,18.48z M40,18.48c0,0.1,0.02,0.2,0.05,0.28c0.03,0.09,0.08,0.16,0.14,0.22
		c0.06,0.06,0.13,0.11,0.21,0.15s0.18,0.05,0.28,0.05c0.1,0,0.2-0.02,0.28-0.05c0.08-0.04,0.16-0.08,0.21-0.15
		c0.06-0.06,0.11-0.14,0.14-0.22c0.03-0.09,0.05-0.18,0.05-0.28c0-0.1-0.02-0.19-0.05-0.28c-0.03-0.09-0.08-0.16-0.14-0.22
		c-0.06-0.06-0.13-0.11-0.21-0.15c-0.08-0.04-0.18-0.05-0.28-0.05c-0.1,0-0.2,0.02-0.28,0.05s-0.16,0.08-0.21,0.15
		c-0.06,0.06-0.11,0.14-0.14,0.22C40.02,18.29,40,18.38,40,18.48z"/>
	<path class="st3" d="M43.1,17.39h0.48v2.19H43.1V17.39z"/>
	<path class="st3" d="M46,19.42c-0.14,0.07-0.29,0.13-0.45,0.16c-0.15,0.03-0.31,0.05-0.47,0.05c-0.17,0-0.33-0.03-0.47-0.08
		c-0.14-0.05-0.27-0.13-0.37-0.23c-0.1-0.1-0.19-0.22-0.25-0.36c-0.06-0.14-0.09-0.3-0.09-0.48s0.03-0.33,0.09-0.48
		c0.06-0.14,0.14-0.26,0.25-0.36c0.1-0.1,0.23-0.18,0.37-0.23c0.14-0.05,0.3-0.08,0.47-0.08c0.17,0,0.34,0.02,0.48,0.06
		c0.15,0.04,0.28,0.11,0.39,0.22l-0.34,0.37c-0.07-0.07-0.14-0.12-0.22-0.15c-0.08-0.04-0.19-0.05-0.31-0.05
		c-0.1,0-0.2,0.02-0.28,0.05s-0.16,0.08-0.21,0.15c-0.06,0.06-0.11,0.14-0.14,0.22c-0.03,0.09-0.05,0.18-0.05,0.28
		c0,0.1,0.02,0.2,0.05,0.28c0.03,0.09,0.08,0.16,0.14,0.22c0.06,0.06,0.13,0.11,0.21,0.15s0.18,0.05,0.28,0.05
		c0.1,0,0.2-0.01,0.27-0.04c0.08-0.02,0.14-0.05,0.18-0.07v-0.36h-0.39v-0.45H46V19.42z"/>
	<path class="st3" d="M46.43,17.39h0.82c0.09,0,0.19,0.01,0.29,0.02c0.1,0.01,0.18,0.04,0.26,0.08c0.08,0.04,0.14,0.1,0.19,0.17
		c0.05,0.07,0.07,0.17,0.07,0.29c0,0.12-0.03,0.23-0.1,0.31c-0.07,0.08-0.16,0.14-0.27,0.17v0.01c0.07,0.01,0.14,0.03,0.2,0.06
		s0.11,0.07,0.15,0.11c0.04,0.05,0.08,0.1,0.1,0.16c0.02,0.06,0.03,0.13,0.03,0.2c0,0.12-0.02,0.21-0.07,0.29s-0.11,0.14-0.19,0.19
		c-0.08,0.05-0.17,0.08-0.26,0.1s-0.2,0.03-0.29,0.03h-0.9V17.39z M46.91,18.26h0.35c0.04,0,0.07,0,0.11-0.01s0.07-0.02,0.1-0.04
		c0.03-0.02,0.05-0.04,0.07-0.07s0.03-0.07,0.03-0.11c0-0.05-0.01-0.08-0.03-0.11c-0.02-0.03-0.04-0.05-0.08-0.07
		c-0.03-0.02-0.07-0.03-0.11-0.04s-0.08-0.01-0.11-0.01h-0.33V18.26z M46.91,19.17h0.43c0.04,0,0.07,0,0.11-0.01s0.07-0.02,0.1-0.04
		c0.03-0.02,0.06-0.05,0.08-0.08c0.02-0.03,0.03-0.07,0.03-0.12c0-0.05-0.01-0.09-0.04-0.12c-0.03-0.03-0.06-0.06-0.1-0.07
		s-0.08-0.03-0.13-0.03s-0.09-0.01-0.13-0.01h-0.36V19.17z"/>
	<path class="st3" d="M48.42,17.39h0.48v2.19h-0.48V17.39z"/>
	<path class="st3" d="M49.34,17.39H50l0.93,1.52h0.01v-1.52h0.48v2.19h-0.63l-0.96-1.56h-0.01v1.56h-0.48V17.39z"/>
	<path class="st3" d="M51.75,18.48c0-0.18,0.03-0.33,0.09-0.48s0.14-0.26,0.25-0.36c0.11-0.1,0.23-0.18,0.37-0.23
		c0.14-0.05,0.3-0.08,0.47-0.08s0.33,0.03,0.47,0.08c0.14,0.05,0.27,0.13,0.37,0.23c0.11,0.1,0.19,0.22,0.25,0.36
		s0.09,0.3,0.09,0.48s-0.03,0.33-0.09,0.48s-0.14,0.26-0.25,0.36c-0.11,0.1-0.23,0.18-0.37,0.23c-0.14,0.05-0.3,0.08-0.47,0.08
		s-0.33-0.03-0.47-0.08c-0.14-0.05-0.27-0.13-0.37-0.23c-0.1-0.1-0.19-0.22-0.25-0.36S51.75,18.66,51.75,18.48z M52.25,18.48
		c0,0.1,0.02,0.2,0.05,0.28c0.03,0.09,0.08,0.16,0.14,0.22c0.06,0.06,0.13,0.11,0.21,0.15c0.08,0.04,0.18,0.05,0.28,0.05
		c0.1,0,0.2-0.02,0.28-0.05c0.08-0.04,0.16-0.08,0.21-0.15s0.11-0.14,0.14-0.22s0.05-0.18,0.05-0.28c0-0.1-0.02-0.19-0.05-0.28
		s-0.08-0.16-0.14-0.22s-0.13-0.11-0.21-0.15c-0.08-0.04-0.18-0.05-0.28-0.05c-0.1,0-0.2,0.02-0.28,0.05
		c-0.08,0.04-0.15,0.08-0.21,0.15c-0.06,0.06-0.11,0.14-0.14,0.22C52.26,18.29,52.25,18.38,52.25,18.48z"/>
	<path class="st3" d="M54.43,17.39h0.82c0.09,0,0.19,0.01,0.29,0.02c0.1,0.01,0.18,0.04,0.26,0.08c0.08,0.04,0.14,0.1,0.19,0.17
		c0.05,0.07,0.07,0.17,0.07,0.29c0,0.12-0.03,0.23-0.1,0.31c-0.07,0.08-0.16,0.14-0.27,0.17v0.01c0.07,0.01,0.14,0.03,0.2,0.06
		s0.11,0.07,0.15,0.11c0.04,0.05,0.08,0.1,0.1,0.16c0.02,0.06,0.03,0.13,0.03,0.2c0,0.12-0.02,0.21-0.07,0.29s-0.11,0.14-0.19,0.19
		c-0.08,0.05-0.17,0.08-0.26,0.1s-0.2,0.03-0.29,0.03h-0.9V17.39z M54.92,18.26h0.35c0.04,0,0.07,0,0.11-0.01s0.07-0.02,0.1-0.04
		c0.03-0.02,0.05-0.04,0.07-0.07s0.03-0.07,0.03-0.11c0-0.05-0.01-0.08-0.03-0.11c-0.02-0.03-0.04-0.05-0.08-0.07
		c-0.03-0.02-0.07-0.03-0.11-0.04s-0.08-0.01-0.11-0.01h-0.33V18.26z M54.92,19.17h0.43c0.04,0,0.07,0,0.11-0.01s0.07-0.02,0.1-0.04
		c0.03-0.02,0.06-0.05,0.08-0.08c0.02-0.03,0.03-0.07,0.03-0.12c0-0.05-0.01-0.09-0.04-0.12c-0.03-0.03-0.06-0.06-0.1-0.07
		s-0.08-0.03-0.13-0.03s-0.09-0.01-0.13-0.01h-0.36V19.17z"/>
	<path class="st3" d="M57.16,17.39h0.4l0.95,2.19h-0.54l-0.19-0.46h-0.85l-0.18,0.46h-0.53L57.16,17.39z M57.34,18.03l-0.27,0.68
		h0.54L57.34,18.03z"/>
</g>
<linearGradient id="SVGID_4_" gradientUnits="userSpaceOnUse" x1="4.6172" y1="3.4158" x2="6.2325" y2="3.4158">
	<stop  offset="0" style="stop-color:#3F0138"/>
	<stop  offset="4.545450e-03" style="stop-color:#3F0138"/>
	<stop  offset="0.0629" style="stop-color:#48013A"/>
	<stop  offset="0.4054" style="stop-color:#860137"/>
	<stop  offset="0.6864" style="stop-color:#C0012A"/>
	<stop  offset="0.8918" style="stop-color:#EB001D"/>
	<stop  offset="1" style="stop-color:#FC0017"/>
</linearGradient>
<rect x="4.62" y="2.61" class="st4" width="1.62" height="1.62"/>
<linearGradient id="SVGID_5_" gradientUnits="userSpaceOnUse" x1="0" y1="0.8076" x2="1.6153" y2="0.8076">
	<stop  offset="0" style="stop-color:#3F0138"/>
	<stop  offset="4.545450e-03" style="stop-color:#3F0138"/>
	<stop  offset="0.0629" style="stop-color:#48013A"/>
	<stop  offset="0.4054" style="stop-color:#860137"/>
	<stop  offset="0.6864" style="stop-color:#C0012A"/>
	<stop  offset="0.8918" style="stop-color:#EB001D"/>
	<stop  offset="1" style="stop-color:#FC0017"/>
</linearGradient>
<rect class="st5" width="1.62" height="1.62"/>
<linearGradient id="SVGID_6_" gradientUnits="userSpaceOnUse" x1="-1.1468" y1="5.641" x2="5.4606" y2="5.641">
	<stop  offset="0" style="stop-color:#F87011"/>
	<stop  offset="0.317" style="stop-color:#F87211"/>
	<stop  offset="0.4391" style="stop-color:#F87910"/>
	<stop  offset="0.5276" style="stop-color:#F98410"/>
	<stop  offset="0.5994" style="stop-color:#F9950E"/>
	<stop  offset="0.6578" style="stop-color:#FAAA0C"/>
	<stop  offset="0.7143" style="stop-color:#F9B10D"/>
	<stop  offset="0.8687" style="stop-color:#F8BE0F"/>
	<stop  offset="1" style="stop-color:#F7C30F"/>
</linearGradient>
<rect x="1.69" y="4.83" class="st6" width="1.62" height="1.62"/>
</svg>
